<?xml version="1.0" standalone="no"?>
<!DOCTYPE svg PUBLIC "-//W3C//DTD SVG 20010904//EN"
 "http://www.w3.org/TR/2001/REC-SVG-20010904/DTD/svg10.dtd">
<svg version="1.0" xmlns="http://www.w3.org/2000/svg"
 width="2000.000000pt" height="2000.000000pt" viewBox="0 0 2000.000000 2000.000000"
 preserveAspectRatio="xMidYMid meet">
<metadata>
Created by potrace 1.11, written by Peter Selinger 2001-2013
</metadata>
<g transform="translate(0.000000,2000.000000) scale(0.100000,-0.100000)"
fill="#000000" stroke="none">
<path d="M9796 19643 c-4 -4 -37 -8 -74 -9 -37 -1 -67 -3 -67 -4 0 -1 -42 -2
-92 -3 -51 0 -93 -3 -93 -7 0 -3 -9 -6 -20 -6 -11 0 -20 4 -20 9 0 4 -6 5 -12
0 -7 -4 -33 -8 -58 -9 -87 -2 -135 -8 -142 -19 -5 -6 -8 -5 -8 3 0 7 -3 11 -8
8 -4 -2 -41 -7 -82 -11 -133 -12 -164 -15 -225 -21 -33 -4 -63 -11 -67 -18 -6
-8 -8 -7 -8 2 0 7 -5 10 -11 6 -6 -3 -27 -8 -47 -10 -21 -2 -55 -6 -77 -10
-41 -7 -74 -11 -132 -15 -18 -2 -33 -7 -33 -13 0 -5 -3 -7 -6 -4 -3 4 -19 2
-35 -2 -17 -5 -31 -5 -35 1 -4 7 -10 6 -18 0 -7 -6 -29 -11 -49 -13 -20 -1
-37 -5 -37 -8 0 -3 -12 -6 -27 -7 -16 -1 -64 -8 -107 -17 -44 -8 -83 -13 -88
-10 -4 3 -8 1 -8 -5 0 -5 -8 -10 -17 -10 -17 0 -58 -8 -58 -11 0 -1 -13 -3
-30 -5 -16 -2 -41 -7 -55 -11 -38 -9 -74 -16 -87 -17 -7 0 -13 -3 -13 -7 0 -3
-10 -6 -22 -7 -24 -1 -55 -8 -90 -19 -11 -3 -30 -7 -41 -9 -12 -2 -37 -8 -54
-13 -18 -6 -33 -8 -33 -5 0 3 -7 -1 -17 -8 -9 -8 -18 -13 -20 -11 -1 1 -5 1
-8 1 -3 -1 -13 -3 -22 -4 -47 -6 -83 -19 -83 -29 0 -6 -5 -4 -10 4 -5 8 -10
10 -10 4 0 -6 -6 -11 -12 -11 -7 0 -46 -10 -87 -22 -41 -13 -81 -24 -90 -26
-9 -2 -28 -8 -43 -14 -16 -6 -28 -8 -28 -5 0 4 -6 2 -12 -3 -12 -9 -55 -24
-83 -28 -13 -2 -46 -14 -68 -26 -10 -5 -22 -7 -27 -4 -5 3 -11 1 -15 -5 -4 -6
-10 -8 -15 -5 -5 3 -11 1 -15 -5 -4 -6 -11 -8 -16 -5 -5 4 -9 1 -9 -6 0 -7 -3
-10 -6 -7 -3 3 -32 -5 -66 -18 -33 -13 -63 -23 -67 -22 -3 0 -22 -5 -41 -13
-19 -7 -38 -12 -42 -11 -5 1 -8 -2 -8 -8 0 -6 -3 -9 -7 -9 -17 3 -73 -14 -73
-22 0 -5 -11 -9 -25 -9 -14 0 -25 -4 -25 -10 0 -5 -3 -9 -7 -9 -15 3 -73 -14
-73 -21 0 -3 -7 -7 -15 -8 -8 -1 -22 -3 -30 -4 -8 -1 -15 -5 -15 -10 0 -4 -9
-8 -20 -8 -11 0 -20 -4 -20 -10 0 -5 -3 -9 -7 -8 -5 0 -17 -2 -28 -6 -64 -25
-168 -68 -220 -92 -33 -15 -62 -28 -65 -29 -3 0 -16 -7 -30 -15 -14 -7 -25
-11 -26 -9 0 2 -29 -10 -65 -27 -290 -142 -424 -210 -427 -216 -2 -5 -12 -8
-22 -8 -10 0 -26 -7 -34 -16 -9 -9 -22 -17 -30 -18 -7 -1 -26 -10 -42 -21 -16
-11 -35 -20 -43 -21 -8 -2 -17 -6 -20 -11 -3 -4 -35 -23 -71 -42 -36 -19 -88
-49 -117 -67 -28 -18 -54 -30 -57 -27 -3 4 -6 1 -6 -5 0 -7 -7 -12 -15 -12 -8
0 -15 -4 -15 -10 0 -5 -5 -10 -12 -10 -12 0 -109 -59 -119 -73 -3 -5 -10 -9
-15 -10 -17 -1 -74 -39 -74 -48 0 -5 -3 -8 -7 -7 -13 2 -47 -15 -67 -34 -11
-10 -26 -18 -33 -18 -7 0 -13 -3 -13 -8 0 -4 -20 -18 -45 -32 -25 -14 -45 -28
-45 -32 0 -5 -6 -8 -13 -8 -7 0 -23 -9 -35 -20 -12 -11 -26 -20 -32 -20 -5 0
-10 -4 -10 -10 0 -5 -5 -10 -10 -10 -9 0 -65 -35 -80 -50 -17 -18 -80 -60 -89
-60 -6 0 -11 -4 -11 -8 0 -4 -13 -16 -30 -25 -16 -10 -35 -23 -42 -30 -7 -7
-42 -33 -78 -59 -36 -25 -76 -55 -89 -67 -13 -12 -27 -21 -31 -21 -3 0 -21
-14 -38 -31 -18 -17 -32 -29 -32 -25 0 3 -8 -2 -18 -11 -10 -10 -33 -29 -51
-43 -18 -14 -38 -30 -44 -35 -7 -6 -37 -30 -67 -55 -30 -25 -57 -47 -60 -50
-3 -3 -30 -25 -60 -50 -30 -25 -69 -58 -86 -75 -17 -16 -48 -43 -69 -60 -20
-16 -56 -49 -80 -72 -24 -24 -46 -43 -48 -43 -3 0 -32 -27 -65 -60 -34 -33
-81 -77 -106 -99 -25 -21 -42 -42 -39 -45 4 -3 2 -6 -3 -6 -6 0 -60 -49 -121
-110 -61 -60 -109 -110 -107 -110 2 0 -34 -38 -79 -85 -45 -46 -102 -107 -127
-136 -25 -28 -58 -65 -75 -83 -16 -18 -46 -51 -65 -75 -19 -23 -44 -53 -55
-65 -24 -27 -92 -107 -120 -142 -51 -62 -68 -83 -115 -144 -28 -36 -56 -72
-63 -80 -20 -25 -81 -106 -97 -130 -8 -12 -20 -28 -25 -34 -15 -16 -173 -238
-225 -316 -24 -36 -48 -68 -53 -71 -5 -3 -9 -10 -9 -15 -1 -9 -28 -54 -38 -64
-3 -3 -23 -34 -44 -70 -22 -36 -43 -66 -48 -68 -4 -2 -8 -8 -8 -14 0 -6 -13
-30 -30 -55 -16 -24 -30 -48 -30 -54 0 -5 -4 -9 -10 -9 -5 0 -10 -5 -10 -10 0
-6 -22 -46 -50 -90 -27 -44 -46 -80 -43 -80 3 0 -1 -8 -9 -17 -9 -10 -34 -52
-56 -93 -22 -41 -57 -104 -76 -140 -110 -198 -279 -558 -430 -915 -7 -16 -28
-68 -46 -115 -17 -47 -36 -94 -41 -105 -27 -61 -132 -369 -197 -580 -55 -178
-148 -523 -177 -660 -3 -11 -11 -49 -20 -85 -32 -138 -115 -612 -130 -740 -3
-25 -7 -54 -9 -65 -2 -11 -7 -54 -11 -95 -4 -41 -9 -82 -10 -91 -2 -8 -6 -49
-10 -90 -4 -41 -8 -90 -10 -109 -32 -339 -45 -878 -30 -1200 11 -246 16 -327
20 -365 2 -22 7 -76 10 -119 4 -43 8 -86 10 -95 1 -9 6 -50 9 -91 4 -41 9 -91
11 -110 3 -19 7 -55 10 -80 3 -25 7 -58 10 -75 3 -16 7 -48 10 -70 7 -51 23
-152 30 -185 2 -13 7 -42 10 -65 3 -22 14 -85 25 -140 11 -55 22 -112 24 -127
2 -15 21 -100 41 -190 20 -90 38 -170 40 -178 50 -223 270 -942 329 -1073 8
-18 33 -81 56 -142 42 -112 132 -329 175 -420 12 -27 35 -77 50 -110 54 -121
199 -411 213 -427 8 -10 12 -18 8 -18 -3 0 1 -12 10 -26 23 -35 47 -78 79
-146 15 -32 32 -58 36 -58 5 0 9 -5 9 -11 0 -6 39 -77 88 -157 48 -81 89 -151
91 -156 6 -14 98 -158 111 -173 6 -7 15 -24 22 -38 6 -14 15 -25 20 -25 4 0 8
-4 8 -9 0 -11 82 -135 93 -139 4 -2 7 -10 7 -18 0 -8 3 -14 8 -14 4 0 12 -8
17 -19 10 -18 91 -136 107 -156 5 -5 40 -53 78 -105 39 -52 73 -99 78 -105 4
-5 23 -30 42 -55 19 -25 37 -47 40 -50 3 -3 18 -23 35 -45 16 -22 35 -46 42
-53 7 -7 13 -18 13 -23 0 -5 6 -9 14 -9 8 0 17 -8 20 -18 4 -10 19 -33 35 -51
16 -18 46 -53 67 -79 205 -246 601 -661 824 -862 39 -36 89 -81 109 -100 21
-19 56 -51 79 -70 24 -19 60 -51 81 -70 21 -19 57 -51 81 -70 23 -19 49 -41
56 -48 7 -6 15 -12 17 -12 3 0 21 -15 40 -33 20 -17 56 -48 82 -67 25 -19 63
-50 83 -67 20 -18 42 -33 49 -33 6 0 13 -4 15 -9 4 -12 105 -91 117 -91 5 0
11 -4 13 -8 3 -9 114 -92 123 -92 3 0 14 -8 24 -18 36 -32 50 -42 60 -42 5 0
11 -3 13 -8 2 -4 46 -36 98 -71 52 -36 98 -70 102 -75 4 -6 8 -8 8 -4 0 4 9 0
20 -10 12 -9 23 -15 27 -14 3 2 9 0 12 -5 9 -14 98 -73 110 -73 6 0 11 -4 11
-10 0 -5 5 -10 11 -10 6 0 26 -12 45 -26 19 -15 34 -23 34 -20 0 4 10 -2 22
-13 11 -11 25 -18 30 -15 4 3 8 1 8 -5 0 -6 16 -18 35 -27 19 -9 35 -21 35
-26 0 -5 3 -7 8 -4 4 2 32 -11 62 -30 30 -19 61 -34 69 -34 8 0 12 -3 8 -6 -3
-3 25 -22 61 -41 115 -60 147 -78 152 -83 3 -3 45 -26 95 -50 49 -25 95 -50
102 -57 7 -6 26 -14 43 -18 16 -4 30 -10 30 -14 0 -3 15 -13 33 -20 17 -8 34
-15 37 -16 3 -2 15 -6 28 -10 12 -4 22 -11 22 -16 0 -5 3 -8 8 -7 10 2 66 -25
74 -37 4 -5 8 -7 8 -3 0 4 17 -1 37 -11 81 -40 158 -76 168 -77 5 -1 34 -13
64 -28 30 -14 61 -26 68 -26 7 0 13 -3 13 -8 0 -7 63 -32 88 -34 6 -1 12 -5
12 -10 0 -4 9 -8 20 -8 11 0 20 -4 20 -8 0 -4 12 -9 28 -10 15 -1 29 -7 30
-12 2 -6 10 -10 18 -10 8 0 22 -4 32 -9 44 -22 75 -36 86 -36 6 -1 20 -5 31
-9 11 -4 54 -21 95 -36 41 -15 94 -35 118 -44 23 -9 42 -12 42 -8 0 4 4 2 8
-3 5 -9 66 -32 102 -40 3 0 43 -14 90 -29 47 -16 90 -29 95 -31 10 -2 19 -5
60 -21 11 -4 23 -7 27 -6 3 1 33 -8 65 -19 32 -11 59 -19 61 -19 1 0 3 0 5 -1
1 0 9 -2 17 -4 8 -2 38 -10 67 -18 28 -8 54 -12 57 -9 3 3 6 1 6 -5 0 -5 6
-10 13 -11 20 -1 65 -12 89 -21 13 -4 31 -7 41 -6 9 2 17 -1 17 -6 0 -5 10 -9
23 -9 13 0 27 -3 31 -7 4 -5 17 -9 29 -9 28 -2 64 -11 77 -19 6 -3 10 -1 10 5
0 7 6 6 15 -3 8 -8 28 -14 45 -13 16 1 31 -1 32 -5 2 -4 19 -10 38 -12 19 -3
35 -6 35 -7 0 -2 7 -3 65 -15 42 -8 78 -14 105 -18 11 -2 26 -7 33 -11 7 -4
16 -6 18 -3 3 3 20 1 37 -4 38 -11 101 -21 140 -22 15 0 27 -4 27 -7 0 -4 19
-7 43 -8 23 -1 43 -6 45 -11 1 -4 14 -6 27 -3 14 2 33 -2 42 -9 12 -10 14 -10
9 -1 -4 6 -2 12 3 12 6 0 11 -4 11 -9 0 -4 16 -7 36 -6 19 1 37 -2 39 -6 3 -4
20 -7 37 -8 18 0 49 -3 68 -6 19 -3 54 -7 76 -9 23 -2 47 -6 53 -10 6 -4 11
-1 11 6 0 8 3 9 8 3 4 -6 18 -11 32 -12 54 -5 88 -11 99 -17 6 -4 11 -1 11 6
0 8 3 9 8 3 4 -5 32 -11 62 -12 30 -1 82 -5 115 -8 33 -4 76 -8 95 -9 19 0 41
-5 49 -10 10 -7 12 -6 6 4 -5 9 -2 10 14 5 12 -3 60 -8 107 -10 47 -2 88 -6
91 -9 3 -3 14 -1 24 5 11 5 19 6 19 2 0 -4 92 -8 205 -8 113 0 205 -4 205 -9
0 -5 5 -5 13 0 6 5 103 9 214 9 112 0 203 2 203 5 0 3 33 5 73 5 39 -1 84 2
100 6 16 5 27 4 27 -2 0 -6 5 -7 11 -3 7 4 39 8 73 10 96 6 155 12 166 19 6 3
10 1 10 -5 0 -6 5 -8 12 -4 6 4 30 9 52 10 22 2 46 6 53 8 7 3 13 0 13 -7 0
-8 3 -9 8 -1 4 6 14 11 22 12 19 1 126 11 166 16 18 2 37 7 44 11 9 6 11 4 5
-4 -6 -10 -3 -11 13 -2 11 6 36 11 54 11 19 0 39 5 46 12 9 9 12 9 12 0 0 -8
7 -9 23 -3 12 4 30 7 40 6 9 -2 17 0 17 3 0 4 12 8 28 8 15 1 52 5 82 9 30 5
61 8 68 8 6 0 12 3 12 7 0 3 10 6 23 6 34 1 177 26 215 38 9 3 33 8 52 11 19
2 49 7 65 11 17 4 38 7 48 8 9 0 17 3 17 6 0 3 14 7 32 8 17 2 38 8 45 14 10
8 13 7 13 -2 0 -9 4 -9 13 -3 6 6 20 9 30 8 9 -2 15 1 11 6 -3 5 6 10 20 10
26 2 44 5 49 9 1 1 13 4 27 5 14 2 43 9 65 15 22 6 50 12 63 13 12 0 22 4 22
8 0 4 20 10 45 13 25 4 45 11 45 15 0 4 10 7 23 8 28 1 70 11 101 23 13 5 27
6 30 3 3 -4 6 -2 6 4 0 5 7 10 15 11 8 1 22 3 30 4 8 1 15 4 15 8 0 4 8 7 18
7 9 -1 55 11 101 26 46 15 90 27 98 27 7 0 13 4 13 10 0 5 3 9 8 8 16 -3 88
16 108 29 12 8 26 13 30 11 5 -1 19 3 32 10 12 7 22 10 22 6 0 -3 6 -1 13 5 8
6 17 8 20 4 4 -3 7 0 7 7 0 7 3 11 6 7 4 -3 22 0 41 8 19 8 39 12 44 9 5 -3 9
0 9 5 0 6 9 11 19 11 11 0 22 4 25 8 3 5 38 19 78 32 40 13 76 29 80 35 4 5 8
6 8 1 0 -5 6 -4 13 2 6 6 14 10 17 11 9 0 43 13 130 48 47 19 91 35 98 36 6 0
12 3 12 7 0 6 68 33 72 28 2 -1 14 5 28 15 13 9 32 17 42 17 10 0 18 4 18 8 0
9 70 37 83 34 4 -1 7 3 7 8 0 5 3 9 8 8 4 -1 41 15 83 35 42 20 80 37 84 37 3
0 13 7 21 15 9 8 24 15 35 15 10 0 19 5 19 10 0 6 6 10 13 10 6 0 41 16 77 35
76 40 102 52 114 53 5 0 12 4 15 9 3 4 38 24 76 44 39 21 104 56 145 79 41 23
87 47 103 53 15 6 27 14 27 18 0 4 14 12 30 19 17 7 30 16 30 21 0 5 5 9 11 9
7 0 34 13 60 30 27 16 49 26 49 22 0 -4 4 -2 8 3 8 12 167 115 177 115 4 0 13
6 20 12 31 28 45 38 50 38 9 -1 310 202 313 212 2 4 8 8 13 8 10 0 24 10 59
42 10 9 21 14 24 11 3 -4 6 -1 6 5 0 7 6 12 13 12 7 0 20 8 29 18 9 9 50 42
92 71 42 30 76 59 76 64 0 4 5 5 10 2 6 -3 10 -2 10 3 0 5 15 17 34 27 19 11
33 23 30 27 -3 4 -1 8 4 8 8 0 126 90 192 147 14 11 48 40 75 62 89 74 208
177 268 234 22 20 44 37 49 37 5 0 6 5 3 10 -3 6 -2 10 4 10 19 0 390 363 571
560 52 57 104 113 115 125 20 22 114 130 150 174 11 13 27 31 35 40 9 9 36 41
60 71 25 30 47 57 51 60 3 3 22 26 41 51 19 26 40 53 47 60 6 8 25 32 42 54
17 22 41 54 55 70 13 17 41 55 63 85 22 30 47 62 56 71 8 9 15 19 15 22 0 4 9
18 21 31 12 13 21 27 20 30 -1 3 7 15 17 25 23 26 30 36 77 106 188 278 305
459 305 470 0 3 11 21 25 39 14 18 25 36 25 40 0 5 14 28 30 53 17 24 30 46
30 48 0 2 13 26 29 53 171 290 373 702 527 1072 36 85 69 164 74 175 4 11 18
47 30 80 12 33 28 74 35 90 19 45 159 465 194 580 100 338 207 778 246 1018 3
18 10 55 15 82 11 61 47 295 54 350 3 22 10 76 16 120 5 44 12 107 15 140 3
33 8 74 10 90 2 17 6 64 10 105 3 41 8 98 10 125 22 269 32 795 20 1065 -5
111 -16 308 -20 365 -5 61 -16 186 -19 220 -2 17 -6 62 -10 100 -4 39 -8 81
-11 95 -2 14 -7 48 -10 75 -35 293 -121 763 -179 987 -9 31 -18 67 -20 80 -14
59 -39 159 -57 223 -11 39 -24 88 -30 110 -6 22 -14 47 -17 55 -3 8 -6 22 -8
30 -13 64 -202 620 -215 635 -5 5 -9 17 -9 27 0 10 -4 26 -10 36 -5 9 -39 89
-74 177 -87 218 -170 404 -284 635 -95 194 -239 463 -272 510 -10 14 -18 28
-19 32 -3 12 -31 61 -130 221 -51 84 -99 161 -105 172 -6 11 -23 36 -38 56
-16 20 -28 39 -28 44 0 4 -13 24 -30 45 -16 21 -30 43 -30 49 0 6 -4 11 -8 11
-5 0 -15 12 -23 28 -8 15 -39 61 -69 103 -76 106 -213 292 -222 304 -5 6 -31
39 -59 75 -28 36 -57 74 -66 84 -9 11 -30 39 -48 62 -18 24 -36 40 -39 37 -3
-4 -6 -1 -6 6 0 10 -77 109 -113 146 -7 6 -32 36 -57 65 -25 30 -54 64 -65 76
-11 12 -47 52 -80 89 -161 180 -498 518 -670 671 -16 15 -48 43 -70 63 -22 20
-74 65 -115 100 -41 35 -82 70 -90 78 -15 14 -28 25 -102 85 -23 18 -46 38
-52 43 -6 6 -39 31 -73 57 -34 25 -60 48 -57 51 3 3 -3 8 -14 11 -11 4 -29 14
-40 24 -11 9 -30 24 -42 32 -13 8 -33 25 -46 38 -13 13 -24 19 -24 15 0 -4 -4
-3 -8 3 -9 13 -244 185 -272 199 -11 5 -20 13 -20 17 0 5 -7 8 -15 8 -8 0 -15
3 -15 8 0 4 -23 21 -51 37 -28 17 -56 35 -63 40 -22 19 -75 55 -80 55 -6 0
-98 62 -106 71 -3 3 -19 12 -37 19 -17 8 -29 18 -27 22 3 4 -4 8 -15 8 -12 0
-21 5 -21 10 0 6 -7 10 -15 10 -8 0 -15 5 -15 10 0 6 -6 10 -13 10 -8 0 -33
14 -55 30 -23 17 -46 30 -51 30 -5 0 -17 7 -25 16 -9 9 -23 17 -30 18 -8 1
-20 7 -27 13 -20 16 -270 153 -279 153 -4 0 -13 7 -20 15 -7 8 -16 13 -20 10
-5 -3 -11 -1 -14 4 -8 13 -86 52 -86 43 0 -4 -4 -2 -8 4 -10 16 -294 154 -304
148 -4 -3 -8 -1 -8 4 0 4 -16 14 -35 22 -19 8 -35 18 -35 24 0 5 -3 6 -6 3 -4
-4 -19 0 -33 7 -14 8 -46 23 -71 34 -25 11 -76 34 -114 51 -37 17 -74 31 -82
31 -8 0 -14 5 -14 12 0 6 -3 8 -6 5 -4 -3 -16 -1 -28 5 -11 7 -30 13 -41 15
-10 2 -22 7 -25 11 -3 4 -23 13 -45 20 -22 8 -55 21 -74 29 -18 8 -39 16 -45
18 -6 1 -27 9 -46 18 -19 8 -38 13 -42 11 -5 -3 -8 0 -8 5 0 6 -9 11 -20 11
-11 0 -20 5 -20 11 0 5 -4 7 -10 4 -5 -3 -31 4 -57 16 -27 12 -58 22 -70 22
-13 0 -23 4 -23 8 0 5 -18 12 -40 15 -22 4 -40 10 -40 15 0 5 -10 9 -23 9 -13
0 -27 3 -31 7 -7 7 -18 11 -51 15 -11 2 -22 6 -25 9 -5 6 -109 39 -145 46 -10
2 -22 7 -25 12 -3 4 -12 7 -21 6 -8 -2 -32 5 -52 15 -20 10 -35 14 -31 9 3 -5
0 -9 -5 -9 -6 0 -11 5 -11 11 0 6 -9 9 -20 6 -11 -3 -20 -1 -20 4 0 5 -11 9
-23 9 -13 0 -27 3 -31 7 -3 4 -12 8 -19 9 -7 1 -47 11 -88 22 -42 12 -86 23
-100 26 -13 2 -36 9 -50 14 -15 6 -30 8 -33 5 -3 -3 -11 -2 -18 3 -7 6 -26 11
-43 13 -16 2 -32 6 -35 10 -3 4 -12 7 -20 7 -8 0 -31 4 -50 8 -19 4 -44 9 -55
11 -11 2 -20 4 -20 5 0 2 -36 10 -75 17 -19 3 -38 10 -42 17 -6 8 -8 7 -8 -2
0 -10 -5 -10 -20 -2 -11 6 -20 9 -20 6 0 -3 -14 -1 -32 4 -31 10 -102 22 -125
23 -7 0 -13 3 -13 6 0 3 -17 7 -38 9 -34 2 -70 8 -82 12 -3 1 -9 2 -14 1 -5
-1 -16 1 -25 5 -9 3 -29 7 -46 7 -16 0 -36 5 -44 11 -12 9 -13 8 -6 -4 8 -13
6 -13 -8 -1 -9 7 -24 11 -32 7 -8 -3 -15 -2 -15 2 0 4 -15 8 -32 9 -18 0 -49
4 -69 7 -20 4 -51 9 -70 11 -19 2 -50 6 -69 9 -55 8 -237 27 -270 28 -8 1 -18
6 -22 12 -5 7 -8 7 -8 1 0 -11 -31 -11 -110 0 -25 3 -79 8 -120 11 -41 2 -86
5 -100 7 -14 2 -31 -2 -39 -7 -11 -8 -13 -8 -8 0 4 8 -3 12 -21 12 -138 0
-272 7 -272 15 0 5 -7 4 -15 -3 -11 -9 -15 -9 -15 -1 0 7 -5 9 -11 5 -17 -10
-69 -13 -69 -3 0 5 -12 4 -26 -1 -16 -7 -23 -7 -19 0 4 7 -2 7 -18 1 -14 -6
-28 -7 -31 -4 -6 7 -88 6 -121 0 -11 -3 -26 0 -32 6 -8 6 -18 6 -25 0 -7 -5
-22 -8 -33 -7 -38 5 -60 5 -80 1 -11 -2 -23 0 -26 5 -3 4 -9 5 -13 1z"/>
</g>
</svg>
